<svg width="33" height="33" viewBox="0 0 33 33" fill="none" xmlns="http://www.w3.org/2000/svg">
<g clip-path="url(#clip0_1039_399)">
<path d="M30.5961 0.524902H2.92237C1.59672 0.524902 0.52478 1.57147 0.52478 2.8654V30.6533C0.52478 31.9472 1.59672 33.0001 2.92237 33.0001H30.5961C31.9217 33.0001 33 31.9472 33 30.6596V2.8654C33 1.57147 31.9217 0.524902 30.5961 0.524902ZM10.1595 28.1986H5.33898V12.6968H10.1595V28.1986ZM7.74925 10.5846C6.20161 10.5846 4.95207 9.33508 4.95207 7.79378C4.95207 6.25247 6.20161 5.00293 7.74925 5.00293C9.29056 5.00293 10.5401 6.25247 10.5401 7.79378C10.5401 9.32874 9.29056 10.5846 7.74925 10.5846ZM28.1985 28.1986H23.3843V20.6634C23.3843 18.8683 23.3526 16.5532 20.8789 16.5532C18.3735 16.5532 17.9929 18.5131 17.9929 20.5365V28.1986H13.1851V12.6968H17.8026V14.8153H17.8661C18.5067 13.5975 20.0797 12.3099 22.4202 12.3099C27.2978 12.3099 28.1985 15.5193 28.1985 19.6929V28.1986Z" fill="white"/>
</g>
<defs>
<clipPath id="clip0_1039_399">
<rect width="32.4752" height="32.4752" fill="white" transform="translate(0.52478 0.524902)"/>
</clipPath>
</defs>
</svg>
