<svg width="22" height="17" viewBox="0 0 22 17" fill="none" xmlns="http://www.w3.org/2000/svg">
<path d="M10.7454 16.3073C8.63989 16.3073 6.53437 16.3158 4.431 16.3051C1.93217 16.2923 0.405942 14.7527 0.399529 12.2542C0.395254 9.66825 0.390978 7.08013 0.399529 4.49414C0.408079 2.14091 1.945 0.552159 4.28137 0.541482C8.59714 0.517992 12.915 0.517992 17.2308 0.541482C19.5095 0.554294 21.0549 2.07471 21.087 4.34893C21.1255 7.06945 21.1255 9.78997 21.087 12.5105C21.0528 14.7826 19.5009 16.2838 17.218 16.3051C15.059 16.3265 12.9022 16.3094 10.7433 16.3115L10.7454 16.3073ZM15.7559 13.1063C16.1877 13.1063 16.5062 13.1063 16.8247 13.1063C17.8208 13.0977 17.8999 13.023 17.8999 11.9937C17.9041 9.56575 17.8849 7.13565 17.9106 4.70768C17.9191 3.98804 17.6583 3.71898 16.9273 3.72325C12.821 3.74674 8.71471 3.74674 4.61056 3.72325C3.84958 3.71898 3.5717 3.98378 3.58452 4.75039C3.61872 6.96482 3.59735 9.17924 3.59735 11.3958C3.59735 13.2066 3.62086 13.228 5.43352 13.0956C5.50834 13.0892 5.58102 13.0529 5.73492 13.0059C5.79691 11.3189 5.50834 9.53586 6.85715 8.11581C8.22306 6.67653 9.96091 6.77477 11.6988 6.81961C12.7205 6.84523 13.614 7.20612 14.3921 7.88091C15.9953 9.27534 15.758 11.1759 15.7559 13.1063ZM12.5517 13.0764C12.5517 12.3183 12.573 11.6307 12.5452 10.9452C12.5196 10.3388 12.1348 9.96294 11.5598 10.0377C10.6898 10.153 9.48209 9.45471 9.04817 10.7189C8.80876 11.4172 9.00542 12.2671 9.00542 13.0764H12.5538H12.5517Z" fill="black"/>
</svg>
