<svg width="33" height="4" viewBox="0 0 33 4" fill="none" xmlns="http://www.w3.org/2000/svg">
<path d="M16.1193 3.82796C11.4551 3.82796 6.79094 3.83223 2.12675 3.82582C0.901915 3.82582 0.215752 3.26635 0.179414 2.2926C0.149487 1.45765 0.686019 0.791397 1.51326 0.671813C1.82748 0.626969 2.15026 0.629106 2.4709 0.629106C11.5877 0.629106 20.7023 0.629106 29.8191 0.629106C30.1376 0.629106 30.4625 0.629106 30.7746 0.676085C31.5377 0.793533 32.0571 1.39572 32.0849 2.15806C32.1148 2.96525 31.6189 3.62082 30.828 3.76603C30.4903 3.82796 30.1397 3.82582 29.7934 3.82582C25.2361 3.8301 20.6766 3.82796 16.1193 3.82582V3.82796Z" fill="#FD6F00"/>
</svg>
