<svg width="16" height="35" viewBox="0 0 16 35" fill="none" xmlns="http://www.w3.org/2000/svg">
<path d="M0.768773 17.5015C0.768773 13.314 0.766636 9.12644 0.768773 4.93889C0.770911 2.26321 2.25439 0.774827 4.91353 0.770557C7.20502 0.766286 9.4965 0.762015 11.788 0.770557C14.1479 0.781234 15.734 2.2867 15.7404 4.65274C15.766 13.2414 15.766 21.83 15.7404 30.4187C15.734 32.7869 14.165 34.2881 11.7944 34.303C9.42382 34.318 7.05111 34.3222 4.68054 34.303C2.31638 34.2838 0.779462 32.7484 0.773049 30.3845C0.758086 26.0902 0.768773 21.7959 0.768773 17.5015ZM12.5554 17.6019C12.5554 13.4165 12.549 9.22894 12.5618 5.04353C12.5639 4.35165 12.4314 3.94379 11.5956 3.95873C9.3597 3.99931 7.11951 3.99077 4.88361 3.96301C4.17821 3.95446 3.95804 4.23847 3.96018 4.9154C3.973 13.3418 3.97514 21.7681 3.96018 30.1923C3.96018 30.9034 4.24447 31.1212 4.91353 31.1148C7.07035 31.0913 9.2293 31.1084 11.3861 31.1063C12.487 31.1063 12.5532 31.038 12.5554 29.9233C12.5575 25.8169 12.5554 21.7105 12.5554 17.604V17.6019Z" fill="black"/>
</svg>
