<svg width="22" height="17" viewBox="0 0 22 17" fill="none" xmlns="http://www.w3.org/2000/svg">
<path d="M10.7881 0.770581C12.9193 0.770581 15.0526 0.76204 17.1838 0.772717C19.4924 0.785529 21.0613 2.30167 21.0913 4.61433C21.1276 7.30709 21.1255 10.002 21.0913 12.6969C21.0635 14.9775 19.5608 16.5257 17.2714 16.5492C12.9279 16.5962 8.58431 16.5983 4.24075 16.5492C1.89155 16.5236 0.405937 14.9113 0.399524 12.5453C0.393111 9.95714 0.393111 7.37115 0.399524 4.78303C0.405937 2.34011 1.95568 0.781258 4.39038 0.770581C6.52155 0.762039 8.65485 0.770581 10.786 0.770581H10.7881ZM3.59948 8.34063C4.30274 7.76621 4.85851 7.28147 5.44634 6.8373C6.88493 5.7461 8.68477 5.76318 10.0998 6.87574C10.6022 7.27079 11.1195 7.65944 11.562 8.11642C12.1412 8.71433 12.6136 8.63959 13.1822 8.09933C14.4306 6.90777 15.8734 6.68782 17.4595 7.35621C17.575 7.40532 17.6989 7.43094 17.8999 7.49287C17.8999 6.50417 17.9041 5.57313 17.8999 4.64423C17.8956 4.12959 17.5942 3.9673 17.1175 3.96944C12.883 3.97584 8.64844 3.97584 4.4139 3.96944C3.83675 3.96944 3.59307 4.21928 3.60162 4.78944C3.61658 5.90839 3.60589 7.02735 3.60589 8.34063H3.59948ZM10.7176 13.3631C12.7932 13.3631 14.8709 13.3824 16.9465 13.3439C17.2543 13.3375 17.8015 13.0855 17.8165 12.9104C17.8678 12.304 18.2333 11.5907 17.5044 11.0953C16.4371 10.3707 15.5706 10.2782 14.9051 10.8177C13.272 12.1481 11.4337 12.1481 9.81128 10.8156C9.35811 10.444 8.89426 10.0831 8.47743 9.67313C7.98579 9.19053 7.5711 9.16917 7.04098 9.64537C6.11113 10.4803 5.11288 11.2405 4.17663 12.0712C3.93294 12.2869 3.8111 12.6435 3.63368 12.9339C3.97142 13.077 4.30702 13.3396 4.64903 13.346C6.67118 13.3845 8.69546 13.3653 10.7176 13.3653V13.3631Z" fill="black"/>
</svg>
